<?xml version="1.0"?>
<svg xmlns="http://www.w3.org/2000/svg" viewBox="0 0 80 80">
    <path style="line-height:normal;text-indent:0;text-align:start;text-decoration-line:none;text-decoration-style:solid;text-decoration-color:#000;text-transform:none;block-progression:tb;isolation:auto;mix-blend-mode:normal" d="M 18.787109 8.8886719 L 8.8886719 18.787109 L 30.101562 40 L 8.8886719 61.212891 L 18.787109 71.111328 L 40 49.898438 L 61.212891 71.111328 L 71.111328 61.212891 L 49.898438 40 L 71.111328 18.787109 L 70.404297 18.080078 L 61.212891 8.8886719 L 40 30.101562 L 18.787109 8.8886719 z M 18.787109 11.716797 L 40 32.929688 L 61.212891 11.716797 L 68.283203 18.787109 L 47.070312 40 L 68.283203 61.212891 L 61.212891 68.283203 L 40 47.070312 L 18.787109 68.283203 L 11.716797 61.212891 L 32.929688 40 L 11.716797 18.787109 L 18.787109 11.716797 z M 19 15 A 1 1 0 0 0 18 16 A 1 1 0 0 0 19 17 A 1 1 0 0 0 20 16 A 1 1 0 0 0 19 15 z M 61 15 A 1 1 0 0 0 60 16 A 1 1 0 0 0 61 17 A 1 1 0 0 0 62 16 A 1 1 0 0 0 61 15 z M 22 18 A 1 1 0 0 0 21 19 A 1 1 0 0 0 22 20 A 1 1 0 0 0 23 19 A 1 1 0 0 0 22 18 z M 58 18 A 1 1 0 0 0 57 19 A 1 1 0 0 0 58 20 A 1 1 0 0 0 59 19 A 1 1 0 0 0 58 18 z M 25 21 A 1 1 0 0 0 24 22 A 1 1 0 0 0 25 23 A 1 1 0 0 0 26 22 A 1 1 0 0 0 25 21 z M 55 21 A 1 1 0 0 0 54 22 A 1 1 0 0 0 55 23 A 1 1 0 0 0 56 22 A 1 1 0 0 0 55 21 z M 28 24 A 1 1 0 0 0 27 25 A 1 1 0 0 0 28 26 A 1 1 0 0 0 29 25 A 1 1 0 0 0 28 24 z M 52 24 A 1 1 0 0 0 51 25 A 1 1 0 0 0 52 26 A 1 1 0 0 0 53 25 A 1 1 0 0 0 52 24 z M 31 27 A 1 1 0 0 0 30 28 A 1 1 0 0 0 31 29 A 1 1 0 0 0 32 28 A 1 1 0 0 0 31 27 z M 49 27 A 1 1 0 0 0 48 28 A 1 1 0 0 0 49 29 A 1 1 0 0 0 50 28 A 1 1 0 0 0 49 27 z M 34 30 A 1 1 0 0 0 33 31 A 1 1 0 0 0 34 32 A 1 1 0 0 0 35 31 A 1 1 0 0 0 34 30 z M 46 30 A 1 1 0 0 0 45 31 A 1 1 0 0 0 46 32 A 1 1 0 0 0 47 31 A 1 1 0 0 0 46 30 z M 37 33 A 1 1 0 0 0 36 34 A 1 1 0 0 0 37 35 A 1 1 0 0 0 38 34 A 1 1 0 0 0 37 33 z M 43 33 A 1 1 0 0 0 42 34 A 1 1 0 0 0 43 35 A 1 1 0 0 0 44 34 A 1 1 0 0 0 43 33 z M 40 36 A 1 1 0 0 0 39 37 A 1 1 0 0 0 40 38 A 1 1 0 0 0 41 37 A 1 1 0 0 0 40 36 z M 33 43 A 1 1 0 0 0 32 44 A 1 1 0 0 0 33 45 A 1 1 0 0 0 34 44 A 1 1 0 0 0 33 43 z M 47 43 A 1 1 0 0 0 46 44 A 1 1 0 0 0 47 45 A 1 1 0 0 0 48 44 A 1 1 0 0 0 47 43 z M 30 46 A 1 1 0 0 0 29 47 A 1 1 0 0 0 30 48 A 1 1 0 0 0 31 47 A 1 1 0 0 0 30 46 z M 50 46 A 1 1 0 0 0 49 47 A 1 1 0 0 0 50 48 A 1 1 0 0 0 51 47 A 1 1 0 0 0 50 46 z M 27 49 A 1 1 0 0 0 26 50 A 1 1 0 0 0 27 51 A 1 1 0 0 0 28 50 A 1 1 0 0 0 27 49 z M 53 49 A 1 1 0 0 0 52 50 A 1 1 0 0 0 53 51 A 1 1 0 0 0 54 50 A 1 1 0 0 0 53 49 z M 24 52 A 1 1 0 0 0 23 53 A 1 1 0 0 0 24 54 A 1 1 0 0 0 25 53 A 1 1 0 0 0 24 52 z M 56 52 A 1 1 0 0 0 55 53 A 1 1 0 0 0 56 54 A 1 1 0 0 0 57 53 A 1 1 0 0 0 56 52 z M 21 55 A 1 1 0 0 0 20 56 A 1 1 0 0 0 21 57 A 1 1 0 0 0 22 56 A 1 1 0 0 0 21 55 z M 59 55 A 1 1 0 0 0 58 56 A 1 1 0 0 0 59 57 A 1 1 0 0 0 60 56 A 1 1 0 0 0 59 55 z M 18 58 A 1 1 0 0 0 17 59 A 1 1 0 0 0 18 60 A 1 1 0 0 0 19 59 A 1 1 0 0 0 18 58 z M 62 58 A 1 1 0 0 0 61 59 A 1 1 0 0 0 62 60 A 1 1 0 0 0 63 59 A 1 1 0 0 0 62 58 z M 15 61 A 1 1 0 0 0 14 62 A 1 1 0 0 0 15 63 A 1 1 0 0 0 16 62 A 1 1 0 0 0 15 61 z M 65 61 A 1 1 0 0 0 64 62 A 1 1 0 0 0 65 63 A 1 1 0 0 0 66 62 A 1 1 0 0 0 65 61 z"/>
</svg>
