<?xml version="1.0"?>
<svg xmlns="http://www.w3.org/2000/svg" viewBox="0 0 64 64">
    <path d="M 55.763672 3.8203125 C 54.727547 3.7794375 53.677344 4.1121719 52.839844 4.8261719 L 26.544922 27.271484 C 25.252922 26.792484 23.765859 26.989969 22.630859 27.917969 L 17.056641 32.478516 C 16.231641 32.430516 15.389766 32.709844 14.759766 33.339844 C 13.799766 34.299844 13.630234 35.738906 14.240234 36.878906 C 11.930234 37.168906 9.7796094 38.198906 8.0996094 39.878906 C 4.8096094 43.158906 5.0805469 46.24875 5.3105469 48.96875 C 5.5505469 51.74875 5.7703125 54.358359 2.5703125 57.568359 C 2.3103125 57.828359 2.2103125 58.218359 2.3203125 58.568359 C 2.4303125 58.918359 2.7298438 59.189766 3.0898438 59.259766 C 6.5898438 59.919766 9.4809375 60.259766 11.960938 60.259766 C 17.080938 60.259766 20.430703 58.778281 23.720703 55.488281 C 25.390703 53.818281 26.420938 51.668906 26.710938 49.378906 C 27.160937 49.628906 27.659453 49.769531 28.189453 49.769531 C 28.989453 49.769531 29.750547 49.458672 30.310547 48.888672 C 30.880547 48.328672 31.189453 47.569531 31.189453 46.769531 C 31.189453 46.710531 31.176828 46.65275 31.173828 46.59375 L 35.732422 41.021484 C 36.661422 39.886484 36.859859 38.397469 36.380859 37.105469 L 58.826172 10.8125 C 60.254172 9.1395 60.155609 6.6087344 58.599609 5.0527344 C 57.821609 4.2752344 56.799797 3.8611875 55.763672 3.8203125 z M 55.683594 5.8164062 C 56.231844 5.8380313 56.772094 6.05725 57.183594 6.46875 C 58.007594 7.29175 58.060687 8.6286719 57.304688 9.5136719 L 35.205078 35.400391 L 28.251953 28.445312 L 54.136719 6.3476562 C 54.579219 5.9696562 55.135344 5.7947812 55.683594 5.8164062 z M 25.263672 29.015625 C 25.742922 29.0395 26.213125 29.236563 26.578125 29.601562 L 34.052734 37.074219 C 34.780734 37.803219 34.838547 38.957859 34.185547 39.755859 L 30.240234 44.576172 L 19.074219 33.412109 L 23.896484 29.466797 C 24.295484 29.140297 24.784422 28.99175 25.263672 29.015625 z M 24.658203 30.923828 C 24.402328 30.923953 24.146172 31.021797 23.951172 31.216797 L 22.535156 32.630859 C 22.144156 33.020859 22.144156 33.653922 22.535156 34.044922 C 22.730156 34.239922 22.986187 34.337891 23.242188 34.337891 C 23.498188 34.337891 23.754219 34.239922 23.949219 34.044922 L 25.365234 32.630859 C 25.756234 32.240859 25.756234 31.607797 25.365234 31.216797 C 25.169734 31.021297 24.914078 30.923703 24.658203 30.923828 z M 28.193359 34.458984 C 27.937484 34.458984 27.681328 34.556453 27.486328 34.751953 L 26.072266 36.166016 C 25.681266 36.557016 25.681266 37.189078 26.072266 37.580078 C 26.267266 37.775078 26.523297 37.873047 26.779297 37.873047 C 27.035297 37.873047 27.291328 37.775078 27.486328 37.580078 L 28.900391 36.166016 C 29.291391 35.775016 29.291391 35.142953 28.900391 34.751953 C 28.704891 34.556453 28.449234 34.458984 28.193359 34.458984 z M 16.880859 34.460938 C 17.134859 34.460938 17.378172 34.558234 17.576172 34.740234 L 23.314453 40.478516 L 28.900391 46.070312 C 29.090391 46.250312 29.189453 46.509531 29.189453 46.769531 C 29.189453 47.039531 29.090391 47.290469 28.900391 47.480469 C 28.520391 47.860469 27.860234 47.860469 27.490234 47.480469 L 26.710938 46.699219 L 24.939453 44.929688 L 18.650391 38.650391 L 16.880859 36.880859 L 16.169922 36.169922 C 15.779922 35.779922 15.779922 35.14 16.169922 34.75 C 16.369922 34.56 16.620859 34.460937 16.880859 34.460938 z M 31.728516 37.994141 C 31.472766 37.994141 31.216984 38.091609 31.021484 38.287109 L 29.607422 39.701172 C 29.216422 40.092172 29.216422 40.724234 29.607422 41.115234 C 29.802422 41.310234 30.058453 41.408203 30.314453 41.408203 C 30.570453 41.408203 30.826484 41.310234 31.021484 41.115234 L 32.435547 39.701172 C 32.826547 39.310172 32.826547 38.678109 32.435547 38.287109 C 32.240047 38.091609 31.984266 37.994141 31.728516 37.994141 z M 15.09375 38.818359 C 15.393652 38.803379 15.69625 38.804063 16 38.820312 L 18.804688 41.623047 L 16.365234 43.087891 C 15.891234 43.371891 15.737484 43.984984 16.021484 44.458984 C 16.209484 44.770984 16.541859 44.943359 16.880859 44.943359 C 17.055859 44.943359 17.233531 44.897781 17.394531 44.800781 L 20.261719 43.080078 L 20.613281 43.431641 L 18.105469 48.445312 C 17.858469 48.939312 18.058734 49.540109 18.552734 49.787109 C 18.696734 49.859109 18.848047 49.892578 18.998047 49.892578 C 19.365047 49.892578 19.718531 49.690844 19.894531 49.339844 L 22.103516 44.923828 L 24.779297 47.599609 C 24.889297 50.019609 24.020781 52.360078 22.300781 54.080078 C 18.660781 57.730078 15.060937 59.229609 5.2109375 57.599609 C 7.7809375 54.309609 7.5307813 51.410781 7.3007812 48.800781 C 7.0807813 46.180781 6.8897656 43.919062 9.5097656 41.289062 C 11.014766 39.784063 12.994434 38.923223 15.09375 38.818359 z"/>
</svg>
 