<?xml version="1.0"?>
<svg xmlns="http://www.w3.org/2000/svg" viewBox="0 0 64 64">
    <path d="M 31 2 C 15.009 2 2 15.01 2 31 C 2 46.99 15.009 60 31 60 C 46.991 60 60 46.99 60 31 C 60 15.01 46.991 2 31 2 z M 31 4 C 45.888 4 58 16.112 58 31 C 58 45.888 45.888 58 31 58 C 16.112 58 4 45.888 4 31 C 4 16.112 16.112 4 31 4 z M 31 8 C 26.981 8 23.201156 9.0384219 19.910156 10.857422 C 19.883156 10.868422 19.861938 10.889344 19.835938 10.902344 C 12.783937 14.835344 8 22.368 8 31 C 8 35.019 9.0384219 38.798844 10.857422 42.089844 C 10.866422 42.112844 10.885484 42.132297 10.896484 42.154297 C 14.828484 49.212297 22.364 54 31 54 C 35.019 54 38.798844 52.961578 42.089844 51.142578 C 42.116844 51.131578 42.138062 51.110656 42.164062 51.097656 C 49.216062 47.164656 54 39.632 54 31 C 54 25.762 52.191203 20.635406 48.908203 16.566406 C 48.561203 16.135406 47.932906 16.070969 47.503906 16.417969 C 47.074906 16.764969 47.006516 17.393266 47.353516 17.822266 C 47.942516 18.552266 48.462312 19.329953 48.945312 20.126953 L 38 31.070312 L 38 11.21875 C 38.48 11.38875 38.961641 11.555719 39.431641 11.761719 C 39.937641 11.982719 40.527047 11.751094 40.748047 11.246094 C 40.970047 10.740094 40.740375 10.151688 40.234375 9.9296875 C 37.318375 8.6496875 34.211 8 31 8 z M 31 10 C 32.706 10 34.374 10.225047 36 10.623047 L 36 26.101562 L 21.970703 12.070312 C 24.710703 10.757312 27.764 10 31 10 z M 43.253906 11.861328 C 43.002281 11.908203 42.767328 12.051297 42.611328 12.279297 C 42.299328 12.734297 42.416094 13.357922 42.871094 13.669922 C 43.500094 14.101922 44.1105 14.570406 44.6875 15.066406 C 44.8755 15.228406 45.108844 15.308594 45.339844 15.308594 C 45.620844 15.308594 45.900656 15.190937 46.097656 14.960938 C 46.457656 14.542938 46.410187 13.910781 45.992188 13.550781 C 45.361187 13.006781 44.690953 12.490531 44.001953 12.019531 C 43.774453 11.863031 43.505531 11.814453 43.253906 11.861328 z M 20.134766 13.0625 L 31.070312 24 L 11.224609 24 C 12.855609 19.409 16.031766 15.5575 20.134766 13.0625 z M 49.9375 21.960938 C 51.2745 24.767938 52 27.859 52 31 C 52 32.726 51.768047 34.394 51.373047 36 L 35.900391 36 L 49.9375 21.960938 z M 33.058594 25.988281 L 35.949219 28.878906 C 35.964219 28.893906 35.985 28.899109 36 28.912109 L 36 33 C 36 33.021 36.010719 33.039547 36.011719 33.060547 L 33.121094 35.951172 C 33.106094 35.966172 33.103844 35.985953 33.089844 36.001953 L 29 36.001953 C 28.979 36.001953 28.962406 36.012672 28.941406 36.013672 L 26.050781 33.121094 C 26.035781 33.106094 26.015 33.102844 26 33.089844 L 26 29 C 26 28.979 25.989281 28.960453 25.988281 28.939453 L 28.878906 26.050781 C 28.893906 26.035781 28.896156 26.016 28.910156 26 L 33 26 C 33.021 26 33.037594 25.989281 33.058594 25.988281 z M 10.626953 26 L 26.099609 26 L 12.070312 40.029297 C 10.757312 37.289297 10 34.236 10 31 C 10 29.274 10.231953 27.606 10.626953 26 z M 24 30.927734 L 24 50.775391 C 19.409 49.145391 15.5575 45.968234 13.0625 41.865234 L 24 30.927734 z M 26 35.898438 L 40.029297 49.929688 C 37.289297 51.242688 34.236 52 31 52 C 29.274 52 27.606 51.768047 26 51.373047 L 26 35.898438 z M 30.929688 38 L 50.775391 38 C 49.144391 42.591 45.968234 46.4425 41.865234 48.9375 L 30.929688 38 z"/>
</svg>
